<?xml version="1.0" standalone="no"?><!-- Generator: Gravit.io --><svg xmlns="http://www.w3.org/2000/svg" xmlns:xlink="http://www.w3.org/1999/xlink" style="isolation:isolate" viewBox="0 0 31 30" width="31" height="30"><defs><clipPath id="_clipPath_8Xi9dox9uZ6DyMu3q4qZUIZTOYwf51Qf"><rect width="31" height="30"/></clipPath></defs><g clip-path="url(#_clipPath_8Xi9dox9uZ6DyMu3q4qZUIZTOYwf51Qf)"><clipPath id="_clipPath_7D4xek72KTISbujxw9XISToSs6Pxrcnb"><rect x="0" y="0" width="101" height="30" transform="matrix(1,0,0,1,0,0)" fill="rgb(255,255,255)"/></clipPath><g clip-path="url(#_clipPath_7D4xek72KTISbujxw9XISToSs6Pxrcnb)"><g id="Group"><clipPath id="_clipPath_PZxM5CaWRWHTHo9hTYSHfb9R5t6b22NY"><rect x="0" y="0" width="110" height="35" transform="matrix(1,0,0,1,0,0)" fill="rgb(255,255,255)"/></clipPath><g clip-path="url(#_clipPath_PZxM5CaWRWHTHo9hTYSHfb9R5t6b22NY)"><g id="Group"><g id="Group"><g id="005-jewel"><g id="Group"><path d=" M 21.854 18.004 L 21.854 11.996 C 21.854 11.776 21.722 11.554 21.53 11.443 L 15.937 8.215 C 15.748 8.106 15.484 8.106 15.296 8.215 L 9.669 11.443 C 9.478 11.553 9.313 11.776 9.313 11.996 L 9.313 18.004 C 9.313 18.224 9.478 18.447 9.669 18.557 L 15.277 21.785 C 15.372 21.839 15.491 21.869 15.607 21.869 C 15.721 21.869 15.836 21.84 15.931 21.785 L 21.529 18.557 C 21.719 18.446 21.854 18.224 21.854 18.004 Z " fill="rgb(113,106,202)"/><path d=" M 7.128 18.049 L 7.128 12.026 C 7.128 11.8 7.02 11.576 6.822 11.469 L 3.066 9.43 C 2.985 9.386 2.895 9.362 2.805 9.362 C 2.512 9.362 2.284 9.598 2.284 9.897 L 2.284 20.178 C 2.284 20.478 2.518 20.713 2.812 20.713 C 2.901 20.713 2.995 20.689 3.076 20.645 L 6.821 18.607 C 7.019 18.499 7.128 18.275 7.128 18.049 Z " fill="rgb(113,106,202)"/><path d=" M 17.041 6.305 L 22.656 9.549 C 22.751 9.603 22.862 9.632 22.977 9.632 C 23.086 9.632 23.192 9.607 23.283 9.557 L 27.028 7.531 C 27.203 7.436 27.309 7.266 27.312 7.074 C 27.315 6.882 27.213 6.709 27.04 6.609 L 17.513 1.108 C 17.428 1.059 17.336 1.033 17.241 1.033 C 16.949 1.033 16.723 1.268 16.723 1.567 L 16.723 5.752 C 16.724 5.972 16.849 6.195 17.041 6.305 Z " fill="rgb(113,106,202)"/><path d=" M 4.203 7.531 L 7.947 9.557 C 8.038 9.606 8.144 9.632 8.254 9.632 C 8.369 9.632 8.481 9.603 8.577 9.548 L 14.159 6.305 C 14.35 6.194 14.443 5.972 14.443 5.751 L 14.443 1.567 C 14.443 1.268 14.249 1.033 13.958 1.033 C 13.863 1.033 13.785 1.059 13.7 1.108 L 4.182 6.609 C 4.009 6.709 3.912 6.882 3.915 7.073 C 3.916 7.266 4.027 7.436 4.203 7.531 Z " fill="rgb(113,106,202)"/><path d=" M 28.387 9.362 C 28.297 9.362 28.22 9.386 28.139 9.43 L 24.371 11.469 C 24.171 11.576 24.039 11.8 24.039 12.026 L 24.039 18.049 C 24.039 18.275 24.178 18.5 24.377 18.607 L 28.148 20.639 C 28.23 20.683 28.325 20.7 28.416 20.7 C 28.416 20.7 28.414 20.7 28.414 20.7 C 28.571 20.7 28.69 20.637 28.788 20.517 C 28.867 20.422 28.883 20.306 28.883 20.178 L 28.883 9.897 C 28.883 9.598 28.68 9.362 28.387 9.362 Z " fill="rgb(113,106,202)"/><path d=" M 14.158 23.695 L 8.627 20.491 C 8.442 20.384 8.194 20.38 8.006 20.482 L 4.265 22.508 C 4.09 22.603 3.986 22.773 3.984 22.965 C 3.981 23.157 4.083 23.33 4.256 23.429 L 13.717 28.89 C 13.802 28.94 13.897 28.964 13.992 28.964 C 13.992 28.964 13.992 28.964 13.992 28.964 C 14.15 28.964 14.263 28.895 14.361 28.772 C 14.438 28.676 14.443 28.56 14.443 28.433 L 14.443 24.248 C 14.443 24.028 14.35 23.806 14.158 23.695 Z " fill="rgb(113,106,202)"/><path d=" M 26.96 22.508 L 23.215 20.482 C 23.029 20.381 22.771 20.384 22.586 20.491 L 17.04 23.695 C 16.849 23.805 16.723 24.028 16.723 24.248 L 16.723 28.433 C 16.723 28.732 16.949 28.967 17.241 28.967 C 17.336 28.967 17.429 28.941 17.513 28.892 L 26.974 23.43 C 27.146 23.331 27.247 23.157 27.244 22.965 C 27.242 22.773 27.135 22.603 26.96 22.508 Z " fill="rgb(113,106,202)"/></g></g></g></g></g></g></g></g></svg>