<?xml version="1.0" standalone="no"?><!-- Generator: Gravit.io --><svg xmlns="http://www.w3.org/2000/svg" xmlns:xlink="http://www.w3.org/1999/xlink" style="isolation:isolate" viewBox="0 0 68 21" width="68" height="21"><defs><clipPath id="_clipPath_Xh4V6OuR0nIpjncOPf0gi3MHgiT7pNOj"><rect width="68" height="21"/></clipPath></defs><g clip-path="url(#_clipPath_Xh4V6OuR0nIpjncOPf0gi3MHgiT7pNOj)"><clipPath id="_clipPath_kU7E5JDxgtbp4dcKRToKh4ClgFWK37QV"><rect x="0" y="1" width="101" height="30" transform="matrix(1,0,0,1,0,0)" fill="rgb(255,255,255)"/></clipPath><g clip-path="url(#_clipPath_kU7E5JDxgtbp4dcKRToKh4ClgFWK37QV)"><g id="Group"><clipPath id="_clipPath_ZwpzGPlNYc5CxxkHFLRp9NgZ2JnJSY7e"><rect x="0" y="1" width="110" height="35" transform="matrix(1,0,0,1,0,0)" fill="rgb(255,255,255)"/></clipPath><g clip-path="url(#_clipPath_ZwpzGPlNYc5CxxkHFLRp9NgZ2JnJSY7e)"><g id="Group"><g id="Group"><path d=" M 14.445 17.263 L 12.106 17.263 L 10.761 13.524 L 5.613 13.524 L 4.296 17.263 L 1.975 17.263 L 7.012 3.742 L 9.407 3.742 L 14.445 17.263 L 14.445 17.263 Z  M 6.257 11.626 L 10.181 11.626 L 8.919 7.961 L 8.919 7.961 Q 8.781 7.592 8.537 6.8 L 8.537 6.8 L 8.537 6.8 Q 8.293 6.008 8.201 5.639 L 8.201 5.639 L 8.201 5.639 Q 7.952 6.772 7.473 8.117 L 7.473 8.117 L 6.257 11.626 L 6.257 11.626 Z  M 23.485 15.605 L 23.485 17.263 L 15.758 17.263 L 15.758 15.927 L 20.906 8.734 L 16.071 8.734 L 16.071 7.076 L 23.337 7.076 L 23.337 8.587 L 18.299 15.605 L 23.485 15.605 L 23.485 15.605 Z  M 33.187 15.605 L 33.187 17.263 L 25.46 17.263 L 25.46 15.927 L 30.608 8.734 L 25.773 8.734 L 25.773 7.076 L 33.04 7.076 L 33.04 8.587 L 28.002 15.605 L 33.187 15.605 L 33.187 15.605 Z  M 44.004 17.263 L 42.457 17.263 L 42.024 15.844 L 41.95 15.844 L 41.95 15.844 Q 41.214 16.774 40.467 17.111 L 40.467 17.111 L 40.467 17.111 Q 39.722 17.447 38.552 17.447 L 38.552 17.447 L 38.552 17.447 Q 37.05 17.447 36.207 16.636 L 36.207 16.636 L 36.207 16.636 Q 35.365 15.826 35.365 14.343 L 35.365 14.343 L 35.365 14.343 Q 35.365 12.768 36.535 11.967 L 36.535 11.967 L 36.535 11.967 Q 37.705 11.165 40.099 11.092 L 40.099 11.092 L 41.858 11.036 L 41.858 10.493 L 41.858 10.493 Q 41.858 9.516 41.402 9.034 L 41.402 9.034 L 41.402 9.034 Q 40.946 8.55 39.989 8.55 L 39.989 8.55 L 39.989 8.55 Q 39.206 8.55 38.487 8.78 L 38.487 8.78 L 38.487 8.78 Q 37.769 9.01 37.105 9.323 L 37.105 9.323 L 36.406 7.776 L 36.406 7.776 Q 37.234 7.343 38.22 7.118 L 38.22 7.118 L 38.22 7.118 Q 39.206 6.892 40.081 6.892 L 40.081 6.892 L 40.081 6.892 Q 42.024 6.892 43.014 7.739 L 43.014 7.739 L 43.014 7.739 Q 44.004 8.587 44.004 10.401 L 44.004 10.401 L 44.004 17.263 L 44.004 17.263 Z  M 39.234 15.789 L 39.234 15.789 L 39.234 15.789 Q 40.412 15.789 41.126 15.13 L 41.126 15.13 L 41.126 15.13 Q 41.84 14.472 41.84 13.283 L 41.84 13.283 L 41.84 12.4 L 40.532 12.455 L 40.532 12.455 Q 39.003 12.51 38.308 12.966 L 38.308 12.966 L 38.308 12.966 Q 37.613 13.422 37.613 14.361 L 37.613 14.361 L 37.613 14.361 Q 37.613 15.043 38.018 15.416 L 38.018 15.416 L 38.018 15.416 Q 38.423 15.789 39.234 15.789 Z  M 52.878 6.892 L 52.878 6.892 L 52.878 6.892 Q 53.532 6.892 53.955 6.984 L 53.955 6.984 L 53.744 9.001 L 53.744 9.001 Q 53.283 8.891 52.785 8.891 L 52.785 8.891 L 52.785 8.891 Q 51.487 8.891 50.681 9.738 L 50.681 9.738 L 50.681 9.738 Q 49.875 10.585 49.875 11.939 L 49.875 11.939 L 49.875 17.263 L 47.711 17.263 L 47.711 7.076 L 49.406 7.076 L 49.691 8.872 L 49.802 8.872 L 49.802 8.872 Q 50.308 7.961 51.123 7.426 L 51.123 7.426 L 51.123 7.426 Q 51.938 6.892 52.878 6.892 Z  M 64.45 17.263 L 62.902 17.263 L 62.47 15.844 L 62.396 15.844 L 62.396 15.844 Q 61.66 16.774 60.913 17.111 L 60.913 17.111 L 60.913 17.111 Q 60.167 17.447 58.997 17.447 L 58.997 17.447 L 58.997 17.447 Q 57.497 17.447 56.654 16.636 L 56.654 16.636 L 56.654 16.636 Q 55.811 15.826 55.811 14.343 L 55.811 14.343 L 55.811 14.343 Q 55.811 12.768 56.98 11.967 L 56.98 11.967 L 56.98 11.967 Q 58.15 11.165 60.545 11.092 L 60.545 11.092 L 62.304 11.036 L 62.304 10.493 L 62.304 10.493 Q 62.304 9.516 61.848 9.034 L 61.848 9.034 L 61.848 9.034 Q 61.393 8.55 60.434 8.55 L 60.434 8.55 L 60.434 8.55 Q 59.652 8.55 58.933 8.78 L 58.933 8.78 L 58.933 8.78 Q 58.215 9.01 57.552 9.323 L 57.552 9.323 L 56.852 7.776 L 56.852 7.776 Q 57.681 7.343 58.666 7.118 L 58.666 7.118 L 58.666 7.118 Q 59.652 6.892 60.526 6.892 L 60.526 6.892 L 60.526 6.892 Q 62.47 6.892 63.46 7.739 L 63.46 7.739 L 63.46 7.739 Q 64.45 8.587 64.45 10.401 L 64.45 10.401 L 64.45 17.263 L 64.45 17.263 Z  M 59.68 15.789 L 59.68 15.789 L 59.68 15.789 Q 60.858 15.789 61.572 15.13 L 61.572 15.13 L 61.572 15.13 Q 62.286 14.472 62.286 13.283 L 62.286 13.283 L 62.286 12.4 L 60.977 12.455 L 60.977 12.455 Q 59.449 12.51 58.754 12.966 L 58.754 12.966 L 58.754 12.966 Q 58.058 13.422 58.058 14.361 L 58.058 14.361 L 58.058 14.361 Q 58.058 15.043 58.463 15.416 L 58.463 15.416 L 58.463 15.416 Q 58.868 15.789 59.68 15.789 Z " fill-rule="evenodd" fill="rgb(255,255,255)"/></g></g></g></g></g></g></svg>