<?xml version="1.0" standalone="no"?><!-- Generator: Gravit.io --><svg xmlns="http://www.w3.org/2000/svg" xmlns:xlink="http://www.w3.org/1999/xlink" style="isolation:isolate" viewBox="0 0 101 30" width="101" height="30"><defs><clipPath id="_clipPath_Yka5pBIwfihvIztqSUtJpi1JpAIhrUBU"><rect width="101" height="30"/></clipPath></defs><g clip-path="url(#_clipPath_Yka5pBIwfihvIztqSUtJpi1JpAIhrUBU)"><clipPath id="_clipPath_Tndpnu55DVm7JnPlI2ejvCP4ozUg7SfP"><rect x="0" y="0" width="101" height="30" transform="matrix(1,0,0,1,0,0)" fill="rgb(255,255,255)"/></clipPath><g clip-path="url(#_clipPath_Tndpnu55DVm7JnPlI2ejvCP4ozUg7SfP)"><g id="Group"><clipPath id="_clipPath_4dJYEPftzllkzUpymcXf47deW4mKXheG"><rect x="0" y="0" width="110" height="35" transform="matrix(1,0,0,1,0,0)" fill="rgb(255,255,255)"/></clipPath><g clip-path="url(#_clipPath_4dJYEPftzllkzUpymcXf47deW4mKXheG)"><g id="Group"><g id="Group"><g id="005-jewel"><g id="Group"><path d=" M 21.854 18.004 L 21.854 11.996 C 21.854 11.776 21.722 11.554 21.53 11.443 L 15.937 8.215 C 15.748 8.106 15.484 8.106 15.296 8.215 L 9.669 11.443 C 9.478 11.553 9.313 11.776 9.313 11.996 L 9.313 18.004 C 9.313 18.224 9.478 18.447 9.669 18.557 L 15.277 21.785 C 15.372 21.839 15.491 21.869 15.607 21.869 C 15.721 21.869 15.836 21.84 15.931 21.785 L 21.529 18.557 C 21.719 18.446 21.854 18.224 21.854 18.004 Z " fill="rgb(255,255,255)"/><path d=" M 7.128 18.049 L 7.128 12.026 C 7.128 11.8 7.02 11.576 6.822 11.469 L 3.066 9.43 C 2.985 9.386 2.895 9.362 2.805 9.362 C 2.512 9.362 2.284 9.598 2.284 9.897 L 2.284 20.178 C 2.284 20.478 2.518 20.713 2.812 20.713 C 2.901 20.713 2.995 20.689 3.076 20.645 L 6.821 18.607 C 7.019 18.499 7.128 18.275 7.128 18.049 Z " fill="rgb(255,255,255)"/><path d=" M 17.041 6.305 L 22.656 9.549 C 22.751 9.603 22.862 9.632 22.977 9.632 C 23.086 9.632 23.192 9.607 23.283 9.557 L 27.028 7.531 C 27.203 7.436 27.309 7.266 27.312 7.074 C 27.315 6.882 27.213 6.709 27.04 6.609 L 17.513 1.108 C 17.428 1.059 17.336 1.033 17.241 1.033 C 16.949 1.033 16.723 1.268 16.723 1.567 L 16.723 5.752 C 16.724 5.972 16.849 6.195 17.041 6.305 Z " fill="rgb(255,255,255)"/><path d=" M 4.203 7.531 L 7.947 9.557 C 8.038 9.606 8.144 9.632 8.254 9.632 C 8.369 9.632 8.481 9.603 8.577 9.548 L 14.159 6.305 C 14.35 6.194 14.443 5.972 14.443 5.751 L 14.443 1.567 C 14.443 1.268 14.249 1.033 13.958 1.033 C 13.863 1.033 13.785 1.059 13.7 1.108 L 4.182 6.609 C 4.009 6.709 3.912 6.882 3.915 7.073 C 3.916 7.266 4.027 7.436 4.203 7.531 Z " fill="rgb(255,255,255)"/><path d=" M 28.387 9.362 C 28.297 9.362 28.22 9.386 28.139 9.43 L 24.371 11.469 C 24.171 11.576 24.039 11.8 24.039 12.026 L 24.039 18.049 C 24.039 18.275 24.178 18.5 24.377 18.607 L 28.148 20.639 C 28.23 20.683 28.325 20.7 28.416 20.7 C 28.416 20.7 28.414 20.7 28.414 20.7 C 28.571 20.7 28.69 20.637 28.788 20.517 C 28.867 20.422 28.883 20.306 28.883 20.178 L 28.883 9.897 C 28.883 9.598 28.68 9.362 28.387 9.362 Z " fill="rgb(255,255,255)"/><path d=" M 14.158 23.695 L 8.627 20.491 C 8.442 20.384 8.194 20.38 8.006 20.482 L 4.265 22.508 C 4.09 22.603 3.986 22.773 3.984 22.965 C 3.981 23.157 4.083 23.33 4.256 23.429 L 13.717 28.89 C 13.802 28.94 13.897 28.964 13.992 28.964 C 13.992 28.964 13.992 28.964 13.992 28.964 C 14.15 28.964 14.263 28.895 14.361 28.772 C 14.438 28.676 14.443 28.56 14.443 28.433 L 14.443 24.248 C 14.443 24.028 14.35 23.806 14.158 23.695 Z " fill="rgb(255,255,255)"/><path d=" M 26.96 22.508 L 23.215 20.482 C 23.029 20.381 22.771 20.384 22.586 20.491 L 17.04 23.695 C 16.849 23.805 16.723 24.028 16.723 24.248 L 16.723 28.433 C 16.723 28.732 16.949 28.967 17.241 28.967 C 17.336 28.967 17.429 28.941 17.513 28.892 L 26.974 23.43 C 27.146 23.331 27.247 23.157 27.244 22.965 C 27.242 22.773 27.135 22.603 26.96 22.508 Z " fill="rgb(255,255,255)"/></g></g><path d=" M 47.445 22.263 L 45.106 22.263 L 43.761 18.524 L 38.613 18.524 L 37.296 22.263 L 34.975 22.263 L 40.012 8.742 L 42.407 8.742 L 47.445 22.263 L 47.445 22.263 L 47.445 22.263 Z  M 39.257 16.626 L 43.181 16.626 L 41.919 12.961 L 41.919 12.961 Q 41.781 12.592 41.537 11.8 L 41.537 11.8 L 41.537 11.8 Q 41.293 11.008 41.201 10.639 L 41.201 10.639 L 41.201 10.639 Q 40.952 11.772 40.473 13.117 L 40.473 13.117 L 39.257 16.626 L 39.257 16.626 L 39.257 16.626 Z  M 56.485 20.605 L 56.485 22.263 L 48.758 22.263 L 48.758 20.927 L 53.906 13.734 L 49.071 13.734 L 49.071 12.076 L 56.337 12.076 L 56.337 13.587 L 51.299 20.605 L 56.485 20.605 L 56.485 20.605 L 56.485 20.605 Z  M 66.187 20.605 L 66.187 22.263 L 58.46 22.263 L 58.46 20.927 L 63.608 13.734 L 58.773 13.734 L 58.773 12.076 L 66.04 12.076 L 66.04 13.587 L 61.002 20.605 L 66.187 20.605 L 66.187 20.605 L 66.187 20.605 Z  M 77.004 22.263 L 75.457 22.263 L 75.024 20.844 L 74.95 20.844 L 74.95 20.844 Q 74.214 21.774 73.467 22.111 L 73.467 22.111 L 73.467 22.111 Q 72.722 22.447 71.552 22.447 L 71.552 22.447 L 71.552 22.447 Q 70.05 22.447 69.207 21.636 L 69.207 21.636 L 69.207 21.636 Q 68.365 20.826 68.365 19.343 L 68.365 19.343 L 68.365 19.343 Q 68.365 17.768 69.535 16.967 L 69.535 16.967 L 69.535 16.967 Q 70.705 16.165 73.099 16.092 L 73.099 16.092 L 74.858 16.036 L 74.858 15.493 L 74.858 15.493 Q 74.858 14.516 74.402 14.034 L 74.402 14.034 L 74.402 14.034 Q 73.946 13.55 72.989 13.55 L 72.989 13.55 L 72.989 13.55 Q 72.206 13.55 71.487 13.78 L 71.487 13.78 L 71.487 13.78 Q 70.769 14.01 70.105 14.323 L 70.105 14.323 L 69.406 12.776 L 69.406 12.776 Q 70.234 12.343 71.22 12.118 L 71.22 12.118 L 71.22 12.118 Q 72.206 11.892 73.081 11.892 L 73.081 11.892 L 73.081 11.892 Q 75.024 11.892 76.014 12.739 L 76.014 12.739 L 76.014 12.739 Q 77.004 13.587 77.004 15.401 L 77.004 15.401 L 77.004 22.263 L 77.004 22.263 L 77.004 22.263 Z  M 72.234 20.789 L 72.234 20.789 L 72.234 20.789 Q 73.412 20.789 74.126 20.13 L 74.126 20.13 L 74.126 20.13 Q 74.84 19.472 74.84 18.283 L 74.84 18.283 L 74.84 17.4 L 73.532 17.455 L 73.532 17.455 Q 72.003 17.51 71.308 17.966 L 71.308 17.966 L 71.308 17.966 Q 70.613 18.422 70.613 19.361 L 70.613 19.361 L 70.613 19.361 Q 70.613 20.043 71.018 20.416 L 71.018 20.416 L 71.018 20.416 Q 71.423 20.789 72.234 20.789 Z  M 85.878 11.892 L 85.878 11.892 L 85.878 11.892 Q 86.532 11.892 86.955 11.984 L 86.955 11.984 L 86.744 14.001 L 86.744 14.001 Q 86.283 13.891 85.785 13.891 L 85.785 13.891 L 85.785 13.891 Q 84.487 13.891 83.681 14.738 L 83.681 14.738 L 83.681 14.738 Q 82.875 15.585 82.875 16.939 L 82.875 16.939 L 82.875 22.263 L 80.711 22.263 L 80.711 12.076 L 82.406 12.076 L 82.691 13.872 L 82.802 13.872 L 82.802 13.872 Q 83.308 12.961 84.123 12.426 L 84.123 12.426 L 84.123 12.426 Q 84.938 11.892 85.878 11.892 Z  M 97.45 22.263 L 95.902 22.263 L 95.47 20.844 L 95.396 20.844 L 95.396 20.844 Q 94.66 21.774 93.913 22.111 L 93.913 22.111 L 93.913 22.111 Q 93.167 22.447 91.997 22.447 L 91.997 22.447 L 91.997 22.447 Q 90.497 22.447 89.654 21.636 L 89.654 21.636 L 89.654 21.636 Q 88.811 20.826 88.811 19.343 L 88.811 19.343 L 88.811 19.343 Q 88.811 17.768 89.98 16.967 L 89.98 16.967 L 89.98 16.967 Q 91.15 16.165 93.545 16.092 L 93.545 16.092 L 95.304 16.036 L 95.304 15.493 L 95.304 15.493 Q 95.304 14.516 94.848 14.034 L 94.848 14.034 L 94.848 14.034 Q 94.393 13.55 93.434 13.55 L 93.434 13.55 L 93.434 13.55 Q 92.652 13.55 91.933 13.78 L 91.933 13.78 L 91.933 13.78 Q 91.215 14.01 90.552 14.323 L 90.552 14.323 L 89.852 12.776 L 89.852 12.776 Q 90.681 12.343 91.666 12.118 L 91.666 12.118 L 91.666 12.118 Q 92.652 11.892 93.526 11.892 L 93.526 11.892 L 93.526 11.892 Q 95.47 11.892 96.46 12.739 L 96.46 12.739 L 96.46 12.739 Q 97.45 13.587 97.45 15.401 L 97.45 15.401 L 97.45 22.263 L 97.45 22.263 L 97.45 22.263 Z  M 92.68 20.789 L 92.68 20.789 L 92.68 20.789 Q 93.858 20.789 94.572 20.13 L 94.572 20.13 L 94.572 20.13 Q 95.286 19.472 95.286 18.283 L 95.286 18.283 L 95.286 17.4 L 93.977 17.455 L 93.977 17.455 Q 92.449 17.51 91.754 17.966 L 91.754 17.966 L 91.754 17.966 Q 91.058 18.422 91.058 19.361 L 91.058 19.361 L 91.058 19.361 Q 91.058 20.043 91.463 20.416 L 91.463 20.416 L 91.463 20.416 Q 91.868 20.789 92.68 20.789 Z " fill-rule="evenodd" fill="rgb(255,255,255)"/></g></g></g></g></g></g></svg>